HIERARCHY
ROOT Hips
{
	OFFSET 0.00 0.00 0.00
	CHANNELS 6 Xposition Yposition Zposition Yrotation Xrotation Zrotation
	JOINT Spine
	{
		OFFSET	0.0000	9.2263	1.5771
		CHANNELS 3 Xrotation Yrotation Zrotation
		JOINT Spine1
		{
			OFFSET	0.0000	16.2540	-0.1656
			CHANNELS 3 Xrotation Yrotation Zrotation
			JOINT Spine2
			{
				OFFSET	0.0000	13.6396	-1.2923
				CHANNELS 3 Xrotation Yrotation Zrotation
				JOINT Neck
				{
					OFFSET	0.0000	13.8774	-4.3542
					CHANNELS 3 Xrotation Yrotation Zrotation
					JOINT Neck1
					{
						OFFSET	0.0000	4.3400	0.9269
						CHANNELS 3 Xrotation Yrotation Zrotation
						JOINT Head
						{
							OFFSET	0.0000	4.0266	0.8585
							CHANNELS 3 Xrotation Yrotation Zrotation
							End Site
							{
								OFFSET 0.0000 23.0297 0.1231
							}
						}
					}
				}
				JOINT LeftShoulder
				{
					OFFSET	6.1442	10.1870	-3.7932
					CHANNELS 3 Zrotation Xrotation Yrotation
					JOINT LeftArm
					{
						OFFSET	12.3191	-1.1130	-1.7935
						CHANNELS 3 Zrotation Xrotation Yrotation
						JOINT LeftForeArm
						{
							OFFSET	27.6870	0.0000	0.0000
							CHANNELS 3 Xrotation Zrotation Yrotation
							JOINT LeftHand
							{
								OFFSET	27.8738	0.0000	0.0000
								CHANNELS 3 Zrotation Yrotation Xrotation
								JOINT LeftHandThumb1
								{
									OFFSET	2.3785	-1.0029	2.6209
									CHANNELS 3 Zrotation Xrotation Yrotation
									JOINT LeftHandThumb2
									{
										OFFSET	3.3624	-1.0029	2.8398
										CHANNELS 3 Zrotation Xrotation Yrotation
										JOINT LeftHandThumb3
										{
											OFFSET	4.5018	-1.3445	2.1783
											CHANNELS 3 Zrotation Xrotation Yrotation
											End Site
											{
												OFFSET 2.6000 -1.0000 1.0000
											}
										}
									}
								}
								JOINT LeftHandMiddle1
								{
									OFFSET	10.4639	0.6148	0.4298
									CHANNELS 3 Zrotation Xrotation Yrotation
									JOINT LeftHandMiddle2
									{
										OFFSET	5.7921	0.0000	0.0000
										CHANNELS 3 Zrotation Xrotation Yrotation
										JOINT LeftHandMiddle3
										{
											OFFSET	3.7132	0.0000	0.0000
											CHANNELS 3 Zrotation Xrotation Yrotation
											End Site
											{
												OFFSET 2.3000 0.0000 0.0000
											}
										}
									}
								}
								JOINT LeftHandIndex1
								{
									OFFSET	10.3945	0.6148	2.7055
									CHANNELS 3 Zrotation Xrotation Yrotation
									JOINT LeftHandIndex2
									{
										OFFSET	5.5493	0.0000	0.0000
										CHANNELS 3 Zrotation Xrotation Yrotation
										JOINT LeftHandIndex3
										{
											OFFSET	3.3911	0.0000	0.0000
											CHANNELS 3 Zrotation Xrotation Yrotation
											End Site
											{
												OFFSET 2.5000 0.0000 0.0000
											}
										}
									}
								}
								JOINT LeftHandRing1
								{
									OFFSET	10.3252	0.3211	-1.8755
									CHANNELS 3 Zrotation Xrotation Yrotation
									JOINT LeftHandRing2
									{
										OFFSET	5.4452	0.0000	0.0000
										CHANNELS 3 Zrotation Xrotation Yrotation
										JOINT LeftHandRing3
										{
											OFFSET	3.7132	0.0000	0.0000
											CHANNELS 3 Zrotation Xrotation Yrotation
											End Site
											{
												OFFSET 2.0000 0.0000 0.0000
											}
										}
									}
								}
								JOINT LeftHandPinky1
								{
									OFFSET	10.0130	-0.0783	-3.9671
									CHANNELS 3 Zrotation Xrotation Yrotation
									JOINT LeftHandPinky2
									{
										OFFSET	3.6763	0.0000	0.0000
										CHANNELS 3 Zrotation Xrotation Yrotation
										JOINT LeftHandPinky3
										{
											OFFSET	2.8113	0.0000	0.0000
											CHANNELS 3 Zrotation Xrotation Yrotation
											End Site
											{
												OFFSET 2.9000 0.0000 0.0000
											}
										}
									}
								}
							}
						}
					}
				}
				JOINT RightShoulder
				{
					OFFSET	-6.1402	10.1870	-3.7932
					CHANNELS 3 Zrotation Xrotation Yrotation
					JOINT RightArm
					{
						OFFSET	-12.3231	-1.1130	-1.7935
						CHANNELS 3 Zrotation Xrotation Yrotation
						JOINT RightForeArm
						{
							OFFSET	-27.6870	0.0000	0.0000
							CHANNELS 3 Xrotation Zrotation Yrotation
							JOINT RightHand
							{
								OFFSET	-27.8738	0.0000	0.0000
								CHANNELS 3 Zrotation Yrotation Xrotation
								JOINT RightHandThumb1
								{
									OFFSET	-2.5178	-0.9367	2.5137
									CHANNELS 3 Zrotation Xrotation Yrotation
									JOINT RightHandThumb2
									{
										OFFSET	-3.2638	-1.0870	2.9669
										CHANNELS 3 Zrotation Xrotation Yrotation
										JOINT RightHandThumb3
										{
											OFFSET	-4.4165	-1.3703	2.1350
											CHANNELS 3 Zrotation Xrotation Yrotation
											End Site
											{
												OFFSET -2.6000 -1.0000 1.0000
											}
										}
									}
								}
								JOINT RightHandIndex1
								{
									OFFSET	-10.4665	0.4896	2.7120
									CHANNELS 3 Zrotation Xrotation Yrotation
									JOINT RightHandIndex2
									{
										OFFSET	-5.3768	0.0000	0.0000
										CHANNELS 3 Zrotation Xrotation Yrotation
										JOINT RightHandIndex3
										{
											OFFSET	-3.3855	0.0000	0.0000
											CHANNELS 3 Zrotation Xrotation Yrotation
											End Site
											{
												OFFSET -2.6000 0.0000 0.0000
											}
										}
									}
								}
								JOINT RightHandMiddle1
								{
									OFFSET	-10.7596	0.4896	0.4278
									CHANNELS 3 Zrotation Xrotation Yrotation
									JOINT RightHandMiddle2
									{
										OFFSET	-5.6168	0.0000	0.0000
										CHANNELS 3 Zrotation Xrotation Yrotation
										JOINT RightHandMiddle3
										{
											OFFSET	-3.7364	0.0000	0.0000
											CHANNELS 3 Zrotation Xrotation Yrotation
											End Site
											{
												OFFSET -2.3000 0.0000 0.0000
											}
										}
									}
								}
								JOINT RightHandRing1
								{
									OFFSET	-10.4702	0.3879	-1.9363
									CHANNELS 3 Zrotation Xrotation Yrotation
									JOINT RightHandRing2
									{
										OFFSET	-5.4013	0.0000	0.0000
										CHANNELS 3 Zrotation Xrotation Yrotation
										JOINT RightHandRing3
										{
											OFFSET	-3.3916	0.0000	0.0000
											CHANNELS 3 Zrotation Xrotation Yrotation
											End Site
											{
												OFFSET -2.2000 0.0000 0.0000
											}
										}
									}
								}
								JOINT RightHandPinky1
								{
									OFFSET	-9.9715	-0.1191	-3.9540
									CHANNELS 3 Zrotation Xrotation Yrotation
									JOINT RightHandPinky2
									{
										OFFSET	-3.6528	0.0000	0.0000
										CHANNELS 3 Zrotation Xrotation Yrotation
										JOINT RightHandPinky3
										{
											OFFSET	-2.7820	0.0000	0.0000
											CHANNELS 3 Zrotation Xrotation Yrotation
											End Site
											{
												OFFSET -2.9000 0.0000 0.0000
											}
										}
									}
								}
							}
						}
					}
				}
			}
		}
	}
	JOINT LeftUpLeg
	{
		OFFSET	9.6338	-3.2733	0.0000
		CHANNELS 3 Xrotation Yrotation Zrotation
		JOINT LeftLeg
		{
			OFFSET	0.0000	-41.7300	-1.7300
			CHANNELS 3 Xrotation Yrotation Zrotation
			JOINT LeftFoot
			{
				OFFSET	0.0126	-39.1900	-0.8477
				CHANNELS 3 Xrotation Yrotation Zrotation
				JOINT LeftToeBase
				{
					OFFSET	-0.1833	-12.1931	8.2823
					CHANNELS 3 Xrotation Yrotation Zrotation
					End Site
					{
						OFFSET 0.0000 0.0000 10.1681
					}
				}
			}
		}
	}
	JOINT RightUpLeg
	{
		OFFSET	-9.6338	-3.2733	0.0000
		CHANNELS 3 Xrotation Yrotation Zrotation
		JOINT RightLeg
		{
			OFFSET	0.0000	-41.7300	-1.7300
			CHANNELS 3 Xrotation Yrotation Zrotation
			JOINT RightFoot
			{
				OFFSET	0.0126	-39.1900	-0.8477
				CHANNELS 3 Xrotation Yrotation Zrotation
				JOINT RightToeBase
				{
					OFFSET	-0.1833	-12.1931	8.2823
					CHANNELS 3 Xrotation Yrotation Zrotation
					End Site
					{
						OFFSET 0.0032 0.0000 10.1681
					}
				}
			}
		}
	}
}
MOTION
Frames: 8
Frame Time: 0.0333333
0.1384 79.3013 0.0292 -33.7959 0.9339 -7.4030 10.8994 -1.5420 1.1818 14.4061 -0.5267 6.5438 14.4558 0.7048 5.7666 -16.9722 4.2355 -3.2069 -0.0000 0.0000 -0.0000 -1.3395 27.5903 -4.6651 0.5212 6.6829 -13.3779 -56.9507 -30.0425 -54.6598 -152.8044 -71.9044 65.6839 -0.4727 -7.8985 -37.4181 -9.7181 4.7075 15.2062 -0.0024 0.0014 -0.0004 8.5949 -25.7111 -22.2299 -16.8958 11.1799 -2.4709 -45.9317 0.0046 -0.0108 -43.9589 0.0042 -0.0104 -17.0808 10.4651 -2.1772 -28.5927 0.0018 -0.0072 -28.6856 0.0018 -0.0072 -14.4140 2.1525 -3.7478 -69.0653 0.0097 -0.0140 -34.1894 0.0025 7.6838 -3.6549 -7.8181 -2.3562 -51.6209 0.0057 -0.0118 -31.9925 0.0023 -0.0080 -1.3582 8.5002 17.7510 16.8143 -3.7156 43.9113 -1.8666 18.5610 107.5286 -14.6254 2.6230 -18.2922 0.5585 20.0965 -13.7098 0.0020 0.0012 -6.4029 -18.9364 0.0604 -22.4802 3.0066 0.0000 -3.1336 11.5771 0.0002 0.0016 33.6473 0.0013 0.0044 -0.6468 3.4506 -9.8010 103.0916 0.0098 0.0077 71.2926 0.0054 0.0075 8.2646 -13.6464 -7.1847 114.1615 0.0112 0.0072 78.8557 0.0064 0.0078 2.4701 -18.1253 -6.4690 94.1343 0.0085 0.0079 77.5035 0.0062 0.0078 -48.2216 2.4355 24.6308 101.2377 -4.6345 -4.8111 -4.5454 -4.8911 2.8697 -13.2953 -0.2619 -6.2291 -38.6413 -10.3147 17.1033 73.2048 6.3568 -7.5789 -32.8657 -6.3870 -9.4661 -2.0931 -0.0359 1.8892 
-1.2427 81.1749 15.3093 -30.7797 -1.6075 -4.8004 12.1410 -1.3869 -2.3294 14.0996 -0.1020 6.9660 14.2797 1.3310 5.8317 -16.3338 3.6312 -3.2509 -0.0000 0.0000 -0.0000 1.4857 24.5679 -3.9532 1.4447 5.6015 -22.1895 -54.0734 -34.2525 -50.7016 -148.6127 -68.8098 60.6177 -1.1856 -4.8783 -35.1906 -9.7181 4.7075 15.2062 -0.0024 0.0014 -0.0004 8.5949 -25.7111 -22.2299 -16.8958 11.1799 -2.4709 -45.9316 0.0046 -0.0108 -43.9590 0.0042 -0.0104 -17.0807 10.4652 -2.1771 -28.5927 0.0018 -0.0072 -28.6856 0.0019 -0.0072 -14.4140 2.1525 -3.7478 -69.0653 0.0097 -0.0140 -34.1893 0.0025 7.6838 -3.6549 -7.8181 -2.3562 -51.6209 0.0057 -0.0118 -31.9925 0.0023 -0.0080 -1.5042 8.1559 18.9839 19.2962 -2.6862 40.3655 -1.9098 18.7904 107.2467 -16.6125 2.9932 -17.2661 0.5585 20.0965 -13.7098 0.0021 0.0012 -6.4028 -18.9364 0.0604 -22.4802 3.0066 0.0000 -3.1337 11.5770 0.0002 0.0016 33.6473 0.0013 0.0044 -0.6468 3.4506 -9.8010 103.0916 0.0097 0.0077 71.2926 0.0054 0.0075 8.2646 -13.6464 -7.1847 114.1615 0.0111 0.0073 78.8557 0.0064 0.0077 2.4701 -18.1253 -6.4691 94.1343 0.0085 0.0079 77.5035 0.0062 0.0077 -52.7218 -1.0540 21.5758 83.9797 -2.8507 -4.1518 -7.4806 -2.5225 -1.1443 -7.0480 -0.2562 -4.1425 -22.7240 -7.4365 8.2450 69.2186 8.5668 -7.6044 -43.3655 -5.1772 -6.2142 -2.0931 -0.0360 1.8891 
-2.1878 83.8060 30.8508 -29.8378 -0.8547 -5.3752 12.7679 -0.6080 -4.0248 14.2006 0.9072 6.8639 14.3308 2.4255 5.7810 -16.2844 3.2196 -3.0305 -0.0000 0.0000 -0.0000 1.0346 22.9535 -2.1127 1.7691 5.1390 -25.7669 -52.7271 -35.8779 -50.4086 -155.2273 -70.0582 67.6065 2.0540 -3.1420 -33.0016 -9.7181 4.7075 15.2062 -0.0024 0.0014 -0.0004 8.5949 -25.7111 -22.2299 -16.8958 11.1799 -2.4709 -45.9316 0.0046 -0.0108 -43.9589 0.0042 -0.0104 -17.0808 10.4652 -2.1772 -28.5927 0.0018 -0.0072 -28.6856 0.0018 -0.0072 -14.4140 2.1525 -3.7478 -69.0654 0.0097 -0.0141 -34.1894 0.0025 7.6838 -3.6550 -7.8181 -2.3562 -51.6209 0.0057 -0.0118 -31.9924 0.0023 -0.0080 -2.1916 9.3818 21.5470 24.5232 -4.1867 34.8367 0.1821 19.0292 112.9581 -17.8176 3.4611 -13.1079 0.5585 20.0965 -13.7098 0.0021 0.0012 -6.4029 -18.9364 0.0604 -22.4802 3.0066 0.0000 -3.1336 11.5771 0.0002 0.0015 33.6473 0.0013 0.0044 -0.6468 3.4506 -9.8010 103.0916 0.0097 0.0077 71.2926 0.0054 0.0075 8.2646 -13.6464 -7.1847 114.1615 0.0111 0.0072 78.8557 0.0064 0.0078 2.4701 -18.1253 -6.4690 94.1343 0.0085 0.0079 77.5035 0.0062 0.0077 -54.5687 -4.4179 21.1581 62.1332 -0.8084 -3.4348 -1.8836 -0.6722 -3.8099 2.3166 -0.4394 -4.4032 -4.8453 -8.7221 0.8852 50.6845 12.9050 -5.7335 -44.0754 -2.6788 -1.3219 -2.0931 -0.0360 1.8892 
-2.4675 87.0567 46.3382 -31.2995 -0.7494 -7.4502 12.9354 -0.1133 -3.9592 14.5954 1.1416 6.5600 14.5478 2.6290 5.9027 -16.3879 3.4172 -2.7938 -0.0000 0.0000 -0.0000 0.1874 24.3639 -0.9865 1.7935 4.9831 -26.3425 -52.9339 -38.0663 -48.3276 -161.8587 -71.2681 74.9955 3.9972 -1.7338 -31.6215 -9.7181 4.7075 15.2062 -0.0024 0.0014 -0.0004 8.5949 -25.7111 -22.2299 -16.8958 11.1799 -2.4709 -45.9317 0.0046 -0.0108 -43.9590 0.0042 -0.0104 -17.0808 10.4651 -2.1772 -28.5927 0.0018 -0.0072 -28.6857 0.0019 -0.0072 -14.4140 2.1525 -3.7478 -69.0653 0.0097 -0.0141 -34.1893 0.0025 7.6838 -3.6549 -7.8181 -2.3562 -51.6209 0.0057 -0.0118 -31.9924 0.0023 -0.0080 -3.3791 11.7696 24.4312 29.6956 -5.3126 35.5002 0.2290 18.9625 113.1821 -15.5643 4.9941 -9.8090 0.5585 20.0965 -13.7098 0.0020 0.0012 -6.4029 -18.9364 0.0604 -22.4802 3.0066 0.0000 -3.1337 11.5770 0.0002 0.0016 33.6473 0.0013 0.0044 -0.6468 3.4506 -9.8010 103.0916 0.0098 0.0077 71.2926 0.0054 0.0075 8.2646 -13.6464 -7.1846 114.1615 0.0111 0.0072 78.8557 0.0064 0.0078 2.4701 -18.1253 -6.4691 94.1343 0.0085 0.0079 77.5035 0.0062 0.0077 -47.7913 -5.3978 23.4151 37.4478 3.4578 -1.9272 2.8374 -0.5432 -5.7237 4.1125 -0.7220 -6.7098 7.5607 0.7681 -5.0085 30.9637 10.3597 5.3202 -11.1009 1.0556 -3.2872 -28.9470 -7.0025 4.7752 
-1.8840 88.4823 61.7933 -34.3515 -1.2355 -10.5005 13.0561 -0.0102 -3.0163 14.9355 0.5318 6.4275 14.6364 1.9783 6.4062 -16.6488 4.1454 -2.4409 -0.0000 0.0000 -0.0000 -1.2891 28.3669 -0.3075 1.8559 4.8918 -27.0752 -52.9347 -43.4324 -40.3835 177.4160 -70.5859 97.0141 6.9614 -1.6815 -29.9742 -9.7181 4.7075 15.2062 -0.0025 0.0014 -0.0004 8.5949 -25.7111 -22.2299 -16.8958 11.1799 -2.4709 -45.9316 0.0046 -0.0108 -43.9589 0.0042 -0.0104 -17.0808 10.4652 -2.1772 -28.5927 0.0019 -0.0072 -28.6856 0.0019 -0.0072 -14.4140 2.1525 -3.7478 -69.0653 0.0097 -0.0140 -34.1893 0.0025 7.6838 -3.6549 -7.8181 -2.3562 -51.6209 0.0057 -0.0118 -31.9924 0.0023 -0.0080 -3.6710 13.0236 25.7588 30.8867 -3.5785 39.9905 -0.7646 18.5137 110.8259 -12.7263 5.7463 -8.8883 0.5585 20.0965 -13.7098 0.0021 0.0012 -6.4028 -18.9364 0.0604 -22.4802 3.0066 0.0000 -3.1336 11.5770 0.0001 0.0015 33.6473 0.0013 0.0044 -0.6468 3.4506 -9.8010 103.0916 0.0097 0.0077 71.2926 0.0054 0.0075 8.2646 -13.6465 -7.1847 114.1615 0.0111 0.0072 78.8557 0.0064 0.0078 2.4701 -18.1253 -6.4690 94.1343 0.0085 0.0079 77.5035 0.0062 0.0078 -44.7318 -4.0410 28.4302 29.5374 3.7124 -1.3599 1.0825 -1.4335 -5.8761 4.9840 -0.8006 -14.9033 10.4339 4.6561 -8.8662 32.4343 6.2789 9.5841 16.9780 1.2919 -10.9061 -27.6412 -5.2911 10.3959 
-0.2524 86.7172 76.9171 -36.9983 -1.9613 -12.4830 13.8252 0.1147 -2.7116 15.1007 0.1717 6.6278 14.5614 1.6408 7.1282 -16.9832 4.7203 -2.1767 -0.0000 0.0000 -0.0000 -3.1241 31.4276 0.1131 1.1496 3.8904 -23.3355 -52.9649 -41.7286 -38.1693 169.4613 -69.3702 105.5282 8.1491 -4.3656 -28.9849 -9.7181 4.7075 15.2062 -0.0024 0.0014 -0.0004 8.5949 -25.7111 -22.2299 -16.8958 11.1799 -2.4709 -45.9316 0.0046 -0.0108 -43.9589 0.0043 -0.0104 -17.0808 10.4652 -2.1771 -28.5927 0.0019 -0.0072 -28.6856 0.0018 -0.0072 -14.4140 2.1525 -3.7477 -69.0653 0.0097 -0.0141 -34.1893 0.0025 7.6838 -3.6549 -7.8181 -2.3562 -51.6209 0.0057 -0.0118 -31.9924 0.0023 -0.0080 -3.6678 12.9672 24.3592 30.1457 -2.5048 43.2193 -1.5145 18.3467 108.7250 -9.8629 7.3390 -10.5770 0.5585 20.0964 -13.7098 0.0021 0.0012 -6.4029 -18.9364 0.0605 -22.4802 3.0066 0.0000 -3.1337 11.5770 0.0002 0.0016 33.6473 0.0013 0.0044 -0.6469 3.4507 -9.8010 103.0916 0.0097 0.0077 71.2926 0.0054 0.0075 8.2646 -13.6464 -7.1847 114.1614 0.0112 0.0072 78.8557 0.0064 0.0078 2.4701 -18.1253 -6.4690 94.1343 0.0085 0.0079 77.5035 0.0062 0.0078 -42.8502 -0.9301 31.9261 22.9052 3.7197 -1.4663 8.9291 -0.0555 -6.6323 -2.6599 0.2390 -15.2491 -11.4015 17.0263 1.5739 71.9090 0.4026 5.4578 17.7929 -3.4575 -6.4113 -16.6158 -1.0422 8.7460 
1.4756 83.2313 92.3849 -38.8103 -3.4008 -12.7703 15.4949 0.2487 -2.3996 15.2978 -0.0024 6.9271 14.5818 1.4939 7.7718 -17.1989 5.0728 -2.2340 -0.0000 0.0000 -0.0000 -3.7736 32.9833 -0.9530 0.5231 2.6118 -19.0341 -53.2609 -38.3819 -37.8375 167.1451 -69.3070 108.0198 7.5323 -7.1588 -29.9317 -9.7181 4.7075 15.2062 -0.0024 0.0014 -0.0004 8.5949 -25.7111 -22.2299 -16.8958 11.1799 -2.4709 -45.9316 0.0046 -0.0108 -43.9589 0.0042 -0.0104 -17.0808 10.4652 -2.1772 -28.5927 0.0019 -0.0073 -28.6856 0.0018 -0.0072 -14.4140 2.1525 -3.7478 -69.0654 0.0097 -0.0140 -34.1893 0.0025 7.6838 -3.6550 -7.8181 -2.3562 -51.6209 0.0057 -0.0118 -31.9924 0.0023 -0.0080 -3.2310 12.6589 22.9528 28.4055 -2.5666 45.6563 -1.8568 18.5748 107.4098 -7.5091 7.4412 -11.4910 0.5585 20.0965 -13.7098 0.0021 0.0012 -6.4029 -18.9364 0.0604 -22.4802 3.0066 0.0000 -3.1336 11.5770 0.0002 0.0015 33.6473 0.0013 0.0044 -0.6468 3.4506 -9.8010 103.0917 0.0097 0.0077 71.2926 0.0054 0.0075 8.2646 -13.6464 -7.1847 114.1615 0.0111 0.0072 78.8557 0.0064 0.0078 2.4701 -18.1253 -6.4690 94.1343 0.0085 0.0079 77.5035 0.0062 0.0078 -51.6659 1.6935 33.7215 50.8300 -0.8572 -2.9612 -1.2650 0.0221 -3.1764 -3.5801 0.2467 -8.6208 -26.9954 20.2714 10.6814 90.1786 -1.7585 2.6472 16.9210 -3.9470 -0.5344 -9.6996 1.1938 5.1627 
3.1502 80.3338 107.7241 -40.1913 -5.2078 -12.1956 17.3790 0.0208 -1.4147 15.4752 -0.8096 6.9713 14.6657 0.6335 8.0765 -17.0130 5.5385 -2.5948 -0.0000 0.0000 -0.0000 -1.3702 34.7090 -3.9888 0.1125 1.2179 -14.6805 -53.2850 -35.6233 -36.2338 165.8430 -68.6825 109.3702 6.5543 -9.7301 -31.0583 -9.7181 4.7075 15.2062 -0.0024 0.0014 -0.0004 8.5949 -25.7111 -22.2299 -16.8958 11.1799 -2.4709 -45.9316 0.0046 -0.0108 -43.9590 0.0042 -0.0105 -17.0808 10.4652 -2.1772 -28.5927 0.0019 -0.0073 -28.6856 0.0018 -0.0072 -14.4140 2.1525 -3.7478 -69.0654 0.0097 -0.0141 -34.1893 0.0025 7.6838 -3.6549 -7.8181 -2.3562 -51.6209 0.0057 -0.0118 -31.9924 0.0023 -0.0080 -3.1136 12.6572 22.4875 26.1858 -3.1855 48.7795 -2.3858 18.9928 105.4778 -5.2412 6.8645 -12.4656 0.5585 20.0965 -13.7098 0.0021 0.0012 -6.4028 -18.9364 0.0605 -22.4802 3.0066 -0.0000 -3.1336 11.5770 0.0002 0.0016 33.6473 0.0013 0.0044 -0.6468 3.4506 -9.8010 103.0916 0.0097 0.0077 71.2926 0.0054 0.0075 8.2646 -13.6464 -7.1847 114.1615 0.0111 0.0072 78.8557 0.0064 0.0078 2.4701 -18.1253 -6.4691 94.1343 0.0085 0.0079 77.5035 0.0062 0.0077 -54.1359 8.6587 36.4853 73.0382 -4.1734 -4.0427 -19.9006 -3.4111 3.8391 -1.6889 -0.4052 -3.4961 -38.1457 19.9204 15.9742 97.6329 -1.6613 0.8256 7.4750 -3.3971 4.0531 -6.2699 1.8712 0.6833 
